<?xml version="1.0" encoding="UTF-8"?>
<svg version="1.1" xmlns="http://www.w3.org/2000/svg" width="429" height="463">
<path d="M0 0 C141.57 0 283.14 0 429 0 C429 152.79 429 305.58 429 463 C287.43 463 145.86 463 0 463 C0 310.21 0 157.42 0 0 Z " fill="rgba(254,254,254,0)" transform="translate(0,0)"/>
<path d="M0 0 C3.96 0 7.92 0 12 0 C12 9.9 12 19.8 12 30 C27.51 30 43.02 30 59 30 C59 20.1 59 10.2 59 0 C62.63 0 66.26 0 70 0 C70 10.23 70 20.46 70 31 C73.63 31 77.26 31 81 31 C102.734461 34.6911466 122.38440648 43.83908476 135.9453125 61.5390625 C144.45279257 74.66366743 147.16098146 91.96787428 144.61767578 107.30566406 C141.16015343 123.1045724 133.38703964 137.12136613 119.69140625 146.28125 C118.80324219 146.8484375 117.91507813 147.415625 117 148 C118.0621875 148.64066406 119.124375 149.28132812 120.21875 149.94140625 C136.80300441 160.04452541 148.15643673 170.41562273 154.11328125 189.58203125 C158.18311493 206.75006413 155.76744943 227.25090568 146.7421875 242.3828125 C134.64817623 260.55094602 115.82639495 271.64379812 94.453125 275.98046875 C92.88711127 276.26722643 91.31936865 276.5447109 89.75 276.8125 C89.03005859 276.93641113 88.31011719 277.06032227 87.56835938 277.18798828 C81.8829752 278.06614475 76.90369078 278 71 278 C71 288.23 71 298.46 71 309 C67.37 309 63.74 309 60 309 C60 299.1 60 289.2 60 279 C44.49 279 28.98 279 13 279 C13 288.9 13 298.8 13 309 C9.37 309 5.74 309 2 309 C2 299.1 2 289.2 2 279 C-21.1 279 -44.2 279 -68 279 C-68 196.83 -68 114.66 -68 30 C-45.56 30 -23.12 30 0 30 C0 20.1 0 10.2 0 0 Z " fill="#ffffff" transform="translate(180,66)"/>
<path d="M0 0 C23.76 0 47.52 0 72 0 C72 30.81774194 72 30.81774194 63.6640625 40.390625 C60.42838709 43.51996366 56.86400468 46.26733322 53.328125 49.046875 C50.3498043 51.54546619 49.71850623 53.28863878 49.3125 57.0625 C49.32366754 60.53002254 49.77652929 61.7370183 52.0546875 64.41796875 C54.63835234 66.70646713 57.28747584 68.86664766 60 71 C65.25092724 76.02262605 68.71915616 80.43831231 72 87 C72 96.9 72 106.8 72 117 C48.24 117 24.48 117 0 117 C0 83.28667791 0 83.28667791 10 73 C11.68751261 71.60140608 13.41051608 70.25565752 15.13867188 68.90771484 C20.53457673 64.97348547 20.53457673 64.97348547 23.87109375 59.40625 C23.87673457 55.93150264 23.09568618 53.28705855 22 50 C20.67825048 49.31065218 19.34196551 48.64911539 18 48 C8.70571103 40.54794714 3.26663947 34.43323815 0 23 C0 15.41 0 7.82 0 0 Z " fill="#314283" transform="translate(180,162)"/>
<path d="M0 0 C3.96 0 7.92 0 12 0 C12 9.9 12 19.8 12 30 C27.51 30 43.02 30 59 30 C59 20.1 59 10.2 59 0 C62.63 0 66.26 0 70 0 C70 10.23 70 20.46 70 31 C24.79 31 -20.42 31 -67 31 C-67 112.51 -67 194.02 -67 278 C-21.46 278 24.08 278 71 278 C71 288.23 71 298.46 71 309 C67.37 309 63.74 309 60 309 C60 299.1 60 289.2 60 279 C44.49 279 28.98 279 13 279 C13 288.9 13 298.8 13 309 C9.37 309 5.74 309 2 309 C2 299.1 2 289.2 2 279 C-21.1 279 -44.2 279 -68 279 C-68 196.83 -68 114.66 -68 30 C-45.56 30 -23.12 30 0 30 C0 20.1 0 10.2 0 0 Z " fill="#ffffff" transform="translate(180,66)"/>
<path d="M0 0 C0.99 0 1.98 0 3 0 C3.37125 1.2375 3.7425 2.475 4.125 3.75 C6.33019155 8.84198776 9.73334309 11.64513647 13.9375 15.0625 C24.47984342 23.72247528 24.47984342 23.72247528 26 29 C26.35503173 33.04036108 26.30311445 36.95847403 26 41 C20.94320897 40.2376212 16.49272285 38.18861679 11.87890625 36.08398438 C5.12896911 33.21004207 -0.82594609 33.01877184 -7.74609375 35.53125 C-9.31634964 36.17190394 -10.88025124 36.82834733 -12.4375 37.5 C-14.01845546 38.15883743 -15.60043894 38.81521516 -17.18359375 39.46875 C-17.86993896 39.76201172 -18.55628418 40.05527344 -19.26342773 40.35742188 C-21 41 -21 41 -23 41 C-24.03158137 28.4681967 -24.03158137 28.4681967 -20.8125 23.875 C-17.23554146 19.80052685 -12.84446347 16.5460145 -8.62939453 13.16040039 C-3.98809019 9.30748384 -1.81584536 5.82981931 0 0 Z " fill="#ffffff" transform="translate(215,223)"/>
<path d="M0 0 C16.17 0 32.34 0 49 0 C49 12 49 12 45 19 C31.47 19 17.94 19 4 19 C0 12 0 12 0 0 Z " fill="#ffffff" transform="translate(192,174)"/>
<path d="M0 0 C3.63 0 7.26 0 11 0 C11 9.9 11 19.8 11 30 C7.37 30 3.74 30 0 30 C0 20.1 0 10.2 0 0 Z " fill="#ffffff" transform="translate(239,66)"/>
<path d="M0 0 C3.3 0 6.6 0 10 0 C10 9.9 10 19.8 10 30 C6.7 30 3.4 30 0 30 C0 20.1 0 10.2 0 0 Z " fill="#ffffff" transform="translate(241,345)"/>
<path d="M0 0 C3.3 0 6.6 0 10 0 C10 9.9 10 19.8 10 30 C6.7 30 3.4 30 0 30 C0 20.1 0 10.2 0 0 Z " fill="#ffffff" transform="translate(182,345)"/>
<path d="M0 0 C3.3 0 6.6 0 10 0 C10 9.9 10 19.8 10 30 C6.7 30 3.4 30 0 30 C0 20.1 0 10.2 0 0 Z " fill="#ffffff" transform="translate(181,66)"/>
</svg>
